<?xml version="1.0" standalone="no"?>
<!DOCTYPE svg PUBLIC "-//W3C//DTD SVG 1.1//EN" "http://www.w3.org/Graphics/SVG/1.1/DTD/svg11.dtd">
<svg t="1638339280769" class="icon" viewBox="0 0 1024 1024" version="1.1" xmlns="http://www.w3.org/2000/svg" p-id="2340" xmlns:xlink="http://www.w3.org/1999/xlink" width="200" height="200">
	<path fill="#e6f1ff" d="M-6.0952381 0h1011.042462v1024H-6.0952381z" fill-opacity="0" p-id="2341"></path>
	<path fill="#e6f1ff" d="M912.5902999 576c-34.894769 0-63.186051-28.658872-63.186051-64s28.291282-64 63.186051-64S975.7632239 476.658872 975.7632239 512s-28.291282 64-63.186052 64m0-170.666667c-58.157949 0-105.32759 47.76041-105.327589 106.666667s47.169641 106.666667 105.327589 106.666667S1017.9047619 570.906256 1017.9047619 512s-47.156513-106.666667-105.314462-106.666667" p-id="2342"></path>
	<path fill="#e6f1ff" d="M112.1767619 576C77.2819929 576 49.0038389 547.341128 49.0038389 512S77.2819929 448 112.1767619 448s63.186051 28.658872 63.186051 64S147.0715309 576 112.1767619 576m0-170.666667C54.0188129 405.333333 6.8622999 453.093744 6.8622999 512S53.9925569 618.666667 112.1767619 618.666667a103.936 103.936 0 0 0 63.186051-21.333334v21.333334h42.141539V512C217.5043519 453.093744 170.3347109 405.333333 112.1767619 405.333333" p-id="2343"></path>
	<path fill="#e6f1ff" d="M674.9041469 618.666667h42.115282V341.333333h-42.115282zM742.3962489 618.666667h42.12841V341.333333h-42.12841zM546.8253769 405.333333a104.369231 104.369231 0 0 0-75.303384 32.085334c-3.820308 3.977846-7.430564 8.178872-10.778257 12.603077l24.576 39.830974 0.236308-0.36759c4.253538-7.062974 8.887795-14.270359 14.454154-20.48a62.700308 62.700308 0 0 1 46.815179-21.005128c34.907897 0 63.199179 28.645744 63.19918 64s-28.291282 64-63.19918 64a62.660923 62.660923 0 0 1-46.815179-21.018256c-5.566359-6.196513-10.200615-13.403897-14.454154-20.48l-41.721436-67.623385c-6.485333-10.673231-13.259487-20.690051-21.700923-29.459692a104.369231 104.369231 0 0 0-75.303385-32.085334c-58.157949 0-105.314462 47.747282-105.314461 106.666667v170.666667h42.115282v-85.333334a104.369231 104.369231 0 0 0 138.502564-10.765128c3.820308-3.964718 7.443692-8.165744 10.778256-12.57682l-24.589128-39.857231-0.210051 0.36759c-4.266667 7.076103-8.900923 14.283487-14.467282 20.48a62.660923 62.660923 0 0 1-46.81518 21.005128c-34.894769 0-63.199179-28.632615-63.199179-63.986872 0-35.354256 28.30441-64 63.199179-64 18.550154 0 35.249231 8.113231 46.81518 21.005128 5.566359 6.209641 10.200615 13.417026 14.467282 20.48l41.721436 67.623385c4.97559 7.968821 13.246359 20.690051 21.687795 29.47282a104.369231 104.369231 0 0 0 75.303384 32.085334c58.157949 0 105.32759-47.76041 105.32759-106.666667 0-58.919385-47.156513-106.666667-105.32759-106.666667" p-id="2344"></path>
</svg>
